<svg width="150" height="150" viewBox="0 0 150 150" fill="none" xmlns="http://www.w3.org/2000/svg">
<g clip-path="url(#clip0)">
<path d="M77.8406 136.209C111.618 136.209 139 111.343 139 80.6761C139 50.0094 118.813 17.2095 85.0359 17.2095C51.2586 17.2095 10 62.7027 10 93.3695C10 124.036 44.0634 136.209 77.8406 136.209Z" fill="#EDF0FC"/>
<path d="M129.527 36.8136C133.274 44.1618 138.793 48.8534 141.853 47.293C144.912 45.7326 145.945 39.6721 142.198 32.3239C138.451 24.9757 129.334 18.3149 126.274 19.8753C123.215 21.4357 125.779 29.4655 129.527 36.8136Z" fill="#EDF0FC"/>
<path d="M11.1095 83.8159C10.6372 84.0931 10.0265 84.0659 9.63335 83.6847L6.82768 80.9648C6.10885 80.268 4.90877 80.8185 4.96799 81.8179L5.17885 85.3764C5.19098 85.581 5.14557 85.785 5.04777 85.9651L3.34337 89.1042C2.86611 89.9833 3.7173 90.9904 4.66358 90.6664L8.76261 89.2627C9.20218 89.1122 9.68337 89.2603 10.0194 89.5812C11.1262 90.6382 12.931 91.6249 15.3792 92.4618L15.1453 92.9905C14.7657 93.8486 15.5681 94.7566 16.4664 94.4853L19.4625 93.5805C24.4633 94.6583 27.8132 93.9668 29.809 93.1331C31.3211 92.5015 31.3527 91.0425 30.5821 89.4186C29.3513 86.8247 26.7144 83.88 21.6721 82.7571C17.1903 81.7591 13.4059 82.4681 11.1095 83.8159Z" fill="url(#paint0_linear)"/>
<path d="M47.5002 58.5C40.7174 54.8588 42.1142 47.4988 44.312 46.0001C46.0003 44.8488 54.0002 45 55.0002 52.5C57.0003 51 61.0002 49.5 63.0002 49C59.5002 44.5 60.8826 38.7901 63.4414 37.645C66.0003 36.5 73.5002 38.4999 72.5001 46.9999C91.5002 43.5 95.5003 67.0001 104.562 78.0428C106.505 80.4095 119.5 89 102.683 95.9847C103.5 104.145 89.0004 107.5 86.5295 104.207C85.5004 110 74.5004 114.5 67.8454 109.213C65.5116 113.429 53.8841 119.791 52.0812 104.281C52.0223 103.774 51.9028 103.265 51.704 102.796C46.2215 89.8458 36.6979 71.2667 47.5002 58.5Z" fill="url(#paint1_linear)"/>
<path d="M89.2469 84.26L83.0673 95.4963C82.9609 95.7817 82.6576 95.913 82.3912 95.7892C82.2023 95.7008 82.0744 95.5034 82.0626 95.2827L81.7861 89.6795L89.2469 84.26Z" fill="#7583BE"/>
<path d="M57.6842 93.6661C60.6324 85.4023 66.2205 77.8537 74.449 71.0202C78.9157 67.3106 82.798 64.7692 86.2115 63.0569L86.9113 62.7148C87.9507 62.2185 88.9455 61.7998 89.9005 61.4486L90.5307 61.224C90.9472 61.0818 92.0531 60.7393 93.8487 60.1976C96.8065 59.4242 99.2278 59.0246 101.111 59.0001C101.354 58.9976 101.591 59.0775 101.782 59.2289C102.24 59.5912 102.317 60.2568 101.954 60.7139C98.7696 64.7325 98.1957 66.2136 100.235 65.1577C100.87 64.8285 101.43 64.5432 101.915 64.3014C102.168 64.175 102.461 64.1556 102.73 64.2468C103.282 64.4362 103.576 65.0376 103.387 65.5901C102.738 67.4837 102.281 68.7262 102.018 69.3193C101.483 70.5277 101.032 71.3034 100.787 71.7001L100.408 72.3019C99.9521 73.0093 99.4508 73.7412 98.898 74.4942L98.4126 75.145C98.3587 75.216 98.3041 75.2871 98.2492 75.3585C98.2195 75.3972 98.1897 75.436 98.16 75.4749L97.6363 76.1416C96.5626 77.4851 95.3314 78.891 93.9218 80.3508L93.2026 81.0865L92.453 81.8302L91.6722 82.5829C90.3455 83.8446 88.8875 85.1418 87.2857 86.4721C79.4734 92.9599 71.565 97.1121 63.56 98.9279L52.5647 109.787C52.4098 109.94 52.193 109.985 51.9999 109.906C51.7098 109.787 51.5622 109.425 51.6701 109.098L53.4374 103.759C53.471 103.658 53.4928 103.552 53.5024 103.444C53.5631 102.752 53.113 102.138 52.4969 102.073L44.506 101.223C44.3013 101.201 44.1241 101.054 44.0444 100.843C43.9245 100.522 44.0586 100.153 44.3439 100.017L57.6842 93.6661Z" fill="url(#paint2_linear)"/>
<path fill-rule="evenodd" clip-rule="evenodd" d="M86.4919 66.8432L86.323 66.9873C85.811 67.4684 85.5674 68.0752 85.5853 68.6749C85.6029 69.2913 85.8932 69.8926 86.4182 70.3311C86.9156 70.7483 87.4399 70.9379 87.9502 70.9238C88.5106 70.9085 89.0424 70.6531 89.4954 70.2428C89.9173 69.8587 90.1412 69.3265 90.1734 68.781C90.2045 68.2232 90.0361 67.6492 89.6604 67.1966C89.2661 66.721 88.6495 66.4205 88.0043 66.3803C87.4237 66.3447 86.8171 66.5239 86.323 66.9873L86.4919 66.8432Z" fill="white" stroke="#3A4574"/>
<path d="M94.2418 88.9283L100.496 75.5744C88.7999 73.5826 82.3576 78.3099 94.2418 88.9283Z" fill="url(#paint3_linear)"/>
<path d="M49.2747 97.531L53.5629 81.763C65.8438 85.5254 68.3116 93.0461 49.2747 97.531Z" fill="url(#paint4_linear)"/>
<path fill-rule="evenodd" clip-rule="evenodd" d="M53.0261 72.8483C53.7062 72.3753 54.641 72.5433 55.114 73.2234C55.5257 73.8156 56.6155 74.1255 57.656 73.402C58.6964 72.6785 58.7853 71.549 58.3735 70.9568C57.9006 70.2767 58.0685 69.3419 58.7487 68.869C59.4288 68.396 60.3636 68.564 60.8366 69.2441C62.3783 71.4613 61.4887 74.3908 59.3687 75.865C57.2487 77.3392 54.1927 77.1533 52.6509 74.9361C52.178 74.256 52.3459 73.3212 53.0261 72.8483Z" fill="#3A4574"/>
<path fill-rule="evenodd" clip-rule="evenodd" d="M67.0556 64.4408C67.8245 64.1326 68.6977 64.506 69.006 65.275C69.2743 65.9445 70.2667 66.491 71.443 66.0195C72.6194 65.548 72.9594 64.4672 72.6911 63.7978C72.3828 63.0288 72.7563 62.1556 73.5252 61.8474C74.2942 61.5391 75.1674 61.9126 75.4757 62.6815C76.4805 65.1882 74.9561 67.8433 72.5593 68.8041C70.1625 69.7649 67.2262 68.8979 66.2214 66.3912C65.9131 65.6223 66.2866 64.7491 67.0556 64.4408Z" fill="#3A4574"/>
<ellipse cx="121.25" cy="74" rx="5" ry="5" fill="#E1E5F5"/>
<circle cx="72" cy="124.5" r="6" fill="#E1E5F5"/>
<circle cx="107.5" cy="35.5" r="2" fill="#EDF1FF"/>
<ellipse cx="48.75" cy="123.75" rx="3" ry="3" fill="#FDFDFF"/>
<ellipse cx="121.25" cy="53.75" rx="3.5" ry="3.5" fill="#FDFDFF"/>
<path d="M88.8702 39.6876C89.3563 39.5753 89.6778 39.1193 89.7332 38.6235C89.8957 37.1683 90.7266 35.3185 92.4368 33.6343C94.51 31.5924 96.7095 31.2456 98.3129 31.4566C99.3167 31.5887 99.9973 32.0499 99.8336 32.9584C99.6148 34.1726 98.9024 35.9993 96.8027 38.0672C95.087 39.757 93.5599 40.7898 92.361 41.1619C91.9568 41.2874 91.6034 41.5814 91.5011 41.9921L91.2132 43.1488C90.993 44.0331 89.8014 44.1861 89.365 43.3862L88.9224 42.5751C88.833 42.4112 88.6994 42.2756 88.5369 42.1837L87.7384 41.7321C86.9445 41.283 87.1169 40.0926 88.0056 39.8873L88.8702 39.6876Z" fill="url(#paint5_linear)"/>
<path d="M97.096 39.191L97.8111 36.7104L95.0432 39.0725L95.2989 39.4624C95.7677 40.1773 96.8593 40.0125 97.096 39.191Z" fill="#C8D0EC"/>
<path d="M114.382 111.915C116.108 110.339 118.893 111.254 119.347 113.547L119.787 115.764C119.956 116.619 120.49 117.358 121.248 117.789L123.213 118.905C125.245 120.06 125.235 122.991 123.195 124.132L121.223 125.235C120.462 125.661 119.923 126.396 119.748 127.25L119.294 129.464C118.824 131.754 116.032 132.65 114.317 131.063L112.658 129.528C112.018 128.935 111.153 128.651 110.286 128.748L108.04 129C105.717 129.26 104.002 126.883 104.982 124.761L105.929 122.709C106.295 121.917 106.298 121.006 105.938 120.212L105.004 118.154C104.039 116.025 105.77 113.659 108.091 113.935L110.335 114.202C111.201 114.305 112.069 114.027 112.713 113.439L114.382 111.915Z" fill="url(#paint6_linear)"/>
<path d="M115.104 120.211C114.69 121.451 113.349 122.12 112.109 121.705C110.869 121.291 110.2 119.949 110.615 118.71C111.029 117.47 112.37 116.801 113.61 117.215C114.85 117.63 115.519 118.971 115.104 120.211Z" fill="#A6B0D6"/>
<path d="M119.325 120.771C119.058 121.569 118.195 121.999 117.398 121.733C116.6 121.466 116.169 120.603 116.436 119.805C116.703 119.007 117.566 118.577 118.364 118.843C119.161 119.11 119.592 119.973 119.325 120.771Z" fill="#A6B0D6"/>
</g>
<defs>
<linearGradient id="paint0_linear" x1="29.307" y1="85.2322" x2="-0.581596" y2="91.4977" gradientUnits="userSpaceOnUse">
<stop stop-color="#ABB4D9"/>
<stop offset="1" stop-color="#D2D8F2"/>
</linearGradient>
<linearGradient id="paint1_linear" x1="44.4568" y1="45.6514" x2="107.553" y2="93.4708" gradientUnits="userSpaceOnUse">
<stop stop-color="#FF9FC8"/>
<stop offset="1" stop-color="#FF566C"/>
</linearGradient>
<linearGradient id="paint2_linear" x1="62.3402" y1="107.607" x2="46.1996" y2="87.5744" gradientUnits="userSpaceOnUse">
<stop stop-color="#465591"/>
<stop offset="1" stop-color="#7081C4"/>
</linearGradient>
<linearGradient id="paint3_linear" x1="88.5005" y1="78" x2="97.0005" y2="82.5" gradientUnits="userSpaceOnUse">
<stop stop-color="#FF9BBB"/>
<stop offset="0.984119" stop-color="#FF647D"/>
</linearGradient>
<linearGradient id="paint4_linear" x1="63.7007" y1="90.5949" x2="51.5005" y2="89" gradientUnits="userSpaceOnUse">
<stop stop-color="#FF98C4"/>
<stop offset="1" stop-color="#FF82A4"/>
</linearGradient>
<linearGradient id="paint5_linear" x1="97.845" y1="31.6691" x2="88.4777" y2="46.3788" gradientUnits="userSpaceOnUse">
<stop stop-color="#C3CBEA"/>
<stop offset="1" stop-color="#D3D9F0"/>
</linearGradient>
<linearGradient id="paint6_linear" x1="126.947" y1="120.786" x2="96.7956" y2="114.249" gradientUnits="userSpaceOnUse">
<stop stop-color="#ABB4D9"/>
<stop offset="1" stop-color="#D2D8F2"/>
</linearGradient>
<clipPath id="clip0">
<rect width="150" height="150" fill="white"/>
</clipPath>
</defs>
</svg>
